<svg width="53" height="32" viewBox="0 0 53 32" fill="none" xmlns="http://www.w3.org/2000/svg">
<path d="M47.8489 4.26667H32.9155V0H47.8489V4.26667ZM51.531 25.6C50.5881 28.3669 47.2025 32 40.6489 32C34.091 32 28.779 28.3115 28.779 19.8933C28.779 11.552 33.739 7.264 40.4398 7.264C47.0147 7.264 51.0297 11.0656 51.9065 16.7061C52.0729 17.7856 52.139 19.2405 52.1091 21.2715H34.9849C35.2622 28.1216 42.4153 28.3371 44.7726 25.6H51.531ZM35.1342 17.0667H45.7262C45.5022 13.7664 43.3027 12.3328 40.4419 12.3328C37.3145 12.3328 35.5843 13.9712 35.1342 17.0667ZM14.7097 31.9744H0.915527V0.0447998H15.7486C27.4307 0.2176 27.6526 11.6587 21.5513 14.7776C28.9347 17.4656 29.1822 31.9744 14.7097 31.9744ZM7.31553 12.8H14.9614C20.3118 12.8 21.1609 6.4 14.2958 6.4H7.31553V12.8ZM14.5497 19.2H7.31553V25.6341H14.443C20.9603 25.6341 20.5614 19.2 14.5497 19.2Z" fill="white"/>
</svg>
