<svg width="12" height="14" viewBox="0 0 12 14" fill="none" xmlns="http://www.w3.org/2000/svg">
<path d="M1.80002 4V11.8049C1.80002 12.4649 2.33825 13 3.00353 13H8.9965C9.66119 13 10.2 12.464 10.2 11.8049V4" stroke="white" stroke-width="2"/>
<path d="M11.4 2.19995H0.6C0.268629 2.19995 0 2.46858 0 2.79995C0 3.13132 0.268629 3.39995 0.6 3.39995H11.4C11.7314 3.39995 12 3.13132 12 2.79995C12 2.46858 11.7314 2.19995 11.4 2.19995Z" fill="white"/>
<path fill-rule="evenodd" clip-rule="evenodd" d="M4.19998 6.39827C4.19998 6.06788 4.4663 5.80005 4.79998 5.80005C5.13135 5.80005 5.39998 6.07187 5.39998 6.39827V10.0018C5.39998 10.3322 5.13366 10.6 4.79998 10.6C4.46861 10.6 4.19998 10.3282 4.19998 10.0018V6.39827ZM6.59998 6.39827C6.59998 6.06788 6.8663 5.80005 7.19998 5.80005C7.53135 5.80005 7.79998 6.07187 7.79998 6.39827V10.0018C7.79998 10.3322 7.53366 10.6 7.19998 10.6C6.86861 10.6 6.59998 10.3282 6.59998 10.0018V6.39827Z" fill="white"/>
<path d="M4.19998 2.8V1.59937C4.19998 1.26835 4.47057 1 4.79445 1H7.20551C7.53383 1 7.79998 1.2656 7.79998 1.59937V2.8" stroke="white" stroke-width="2" stroke-linejoin="round"/>
</svg>
