<svg width="33" height="32" viewBox="0 0 33 32" fill="none" xmlns="http://www.w3.org/2000/svg">
<path d="M16.4822 1.37512e-06C7.40069 -0.00367088 0.045166 7.34818 0.045166 16.4223C0.045166 23.5979 4.6465 29.6975 11.0546 31.9376C11.9176 32.1542 11.7854 31.541 11.7854 31.1223V28.2763C6.80211 28.8602 6.60014 25.5625 6.26596 25.0117C5.59027 23.8586 3.99284 23.5648 4.47023 23.014C5.60496 22.4301 6.76172 23.1609 8.10209 25.1402C9.07157 26.5761 10.9628 26.3337 11.9212 26.095C12.1306 25.232 12.5786 24.4609 13.1955 23.8623C8.03232 22.9369 5.88038 19.7861 5.88038 16.0404C5.88038 14.2226 6.47896 12.5518 7.65408 11.204C6.90494 8.98233 7.72385 7.0801 7.83402 6.79734C9.9676 6.60638 12.1856 8.325 12.3582 8.46087C13.5701 8.13404 14.9545 7.96144 16.5042 7.96144C18.0612 7.96144 19.4494 8.14138 20.6722 8.47188C21.0872 8.15607 23.1436 6.67983 25.1267 6.85977C25.2332 7.14253 26.0337 9.00069 25.3286 11.193C26.5184 12.5444 27.1244 14.23 27.1244 16.0514C27.1244 19.8045 24.9577 22.9589 19.7799 23.8696C20.2234 24.3058 20.5755 24.8259 20.8157 25.3997C21.056 25.9735 21.1795 26.5894 21.179 27.2114V31.3427C21.2084 31.6732 21.179 32 21.7298 32C28.2334 29.8077 32.9155 23.664 32.9155 16.426C32.9155 7.34818 25.5563 1.37512e-06 16.4822 1.37512e-06Z" fill="white"/>
</svg>
