<svg width="33" height="32" viewBox="0 0 33 32" fill="none" xmlns="http://www.w3.org/2000/svg">
<path d="M4.27114 0C1.91778 0 0.00172308 1.91569 0 4.27089C0 6.62609 1.91606 8.54215 4.27114 8.54215C6.62535 8.54215 8.54043 6.62609 8.54043 4.27089C8.54043 1.91594 6.62523 0 4.27114 0Z" fill="white"/>
<path d="M7.47663 10.2583H1.06506C0.76008 10.2583 0.512695 10.5056 0.512695 10.8108V31.4477C0.512695 31.7528 0.76008 32.0001 1.06506 32.0001H7.47651C7.78162 32.0001 8.029 31.7527 8.029 31.4477V10.8108C8.02912 10.5054 7.78174 10.2583 7.47663 10.2583Z" fill="white"/>
<path d="M23.8675 10.0154C21.5212 10.0154 19.4593 10.7298 18.2011 11.8949V10.8108C18.2011 10.5056 17.9537 10.2583 17.6486 10.2583H11.4983C11.1932 10.2583 10.9458 10.5056 10.9458 10.8108V31.4477C10.9458 31.7529 11.1932 32.0001 11.4983 32.0001H17.9037C18.2088 32.0001 18.4562 31.7527 18.4562 31.4477V21.2377C18.4562 18.3082 18.995 16.4924 21.6841 16.4924C24.3335 16.4956 24.5318 18.4427 24.5318 21.4127V31.4477C24.5318 31.7529 24.7792 32.0001 25.0844 32.0001H31.4928C31.7977 32.0001 32.0451 31.7527 32.0451 31.4477V20.1275C32.045 15.4194 31.1155 10.0154 23.8675 10.0154Z" fill="white"/>
</svg>
